<mxfile host="app.diagrams.net" modified="2024-06-20T08:53:16.772Z" agent="Mozilla/5.0 (Windows NT 10.0; Win64; x64) AppleWebKit/537.36 (KHTML, like Gecko) Chrome/126.0.0.0 Safari/537.36" etag="o0GZ1wDOn7vrc398hgDK" version="24.4.13" type="device">
  <diagram name="第 1 页" id="sLJ4KDU1JFGfk5za4g6f">
    <mxGraphModel dx="745" dy="420" grid="1" gridSize="10" guides="1" tooltips="1" connect="1" arrows="1" fold="1" page="1" pageScale="1" pageWidth="827" pageHeight="1169" math="0" shadow="0">
      <root>
        <mxCell id="0" />
        <mxCell id="1" parent="0" />
        <mxCell id="4T8lRR1x6J5uWcAEup5r-1" value="&lt;font style=&quot;font-size: 18px;&quot;&gt;Environment&lt;/font&gt;" style="rounded=1;whiteSpace=wrap;html=1;" parent="1" vertex="1">
          <mxGeometry x="620" y="10" width="120" height="240" as="geometry" />
        </mxCell>
        <mxCell id="4T8lRR1x6J5uWcAEup5r-2" value="" style="rounded=1;whiteSpace=wrap;html=1;" parent="1" vertex="1">
          <mxGeometry x="170" y="10" width="320" height="240" as="geometry" />
        </mxCell>
        <mxCell id="4T8lRR1x6J5uWcAEup5r-6" value="Sensors" style="text;html=1;align=center;verticalAlign=middle;whiteSpace=wrap;rounded=1;" parent="1" vertex="1">
          <mxGeometry x="520" y="40" width="60" height="30" as="geometry" />
        </mxCell>
        <mxCell id="4T8lRR1x6J5uWcAEup5r-7" value="Actuators" style="text;html=1;align=center;verticalAlign=middle;whiteSpace=wrap;rounded=1;" parent="1" vertex="1">
          <mxGeometry x="520" y="180" width="60" height="30" as="geometry" />
        </mxCell>
        <mxCell id="4T8lRR1x6J5uWcAEup5r-8" value="&lt;font style=&quot;font-size: 18px;&quot;&gt;Agent&lt;/font&gt;" style="text;html=1;align=center;verticalAlign=middle;whiteSpace=wrap;rounded=1;" parent="1" vertex="1">
          <mxGeometry x="190" y="115" width="60" height="30" as="geometry" />
        </mxCell>
        <mxCell id="4T8lRR1x6J5uWcAEup5r-10" value="What should I do?" style="rounded=1;whiteSpace=wrap;html=1;" parent="1" vertex="1">
          <mxGeometry x="372" y="200" width="84" height="40" as="geometry" />
        </mxCell>
        <mxCell id="4T8lRR1x6J5uWcAEup5r-13" style="edgeStyle=orthogonalEdgeStyle;rounded=1;orthogonalLoop=1;jettySize=auto;html=1;exitX=1;exitY=0.5;exitDx=0;exitDy=0;entryX=-0.019;entryY=0.875;entryDx=0;entryDy=0;entryPerimeter=0;" parent="1" source="4T8lRR1x6J5uWcAEup5r-10" target="4T8lRR1x6J5uWcAEup5r-1" edge="1">
          <mxGeometry relative="1" as="geometry" />
        </mxCell>
        <mxCell id="BckUsuiBPB27EDMu2cYO-6" style="edgeStyle=orthogonalEdgeStyle;curved=1;rounded=1;orthogonalLoop=1;jettySize=auto;html=1;exitX=0.5;exitY=1;exitDx=0;exitDy=0;entryX=0.5;entryY=0;entryDx=0;entryDy=0;" edge="1" parent="1" source="4T8lRR1x6J5uWcAEup5r-14" target="4T8lRR1x6J5uWcAEup5r-10">
          <mxGeometry relative="1" as="geometry" />
        </mxCell>
        <mxCell id="4T8lRR1x6J5uWcAEup5r-14" value="What do I observe?" style="rounded=1;whiteSpace=wrap;html=1;" parent="1" vertex="1">
          <mxGeometry x="372" y="20" width="84" height="40" as="geometry" />
        </mxCell>
        <mxCell id="4T8lRR1x6J5uWcAEup5r-15" style="edgeStyle=orthogonalEdgeStyle;rounded=1;orthogonalLoop=1;jettySize=auto;html=1;exitX=1;exitY=0.5;exitDx=0;exitDy=0;entryX=-0.031;entryY=0.125;entryDx=0;entryDy=0;entryPerimeter=0;endArrow=none;endFill=0;startArrow=classic;startFill=1;" parent="1" source="4T8lRR1x6J5uWcAEup5r-14" target="4T8lRR1x6J5uWcAEup5r-1" edge="1">
          <mxGeometry relative="1" as="geometry" />
        </mxCell>
        <mxCell id="BckUsuiBPB27EDMu2cYO-2" style="edgeStyle=orthogonalEdgeStyle;curved=1;rounded=1;orthogonalLoop=1;jettySize=auto;html=1;exitX=1;exitY=0.5;exitDx=0;exitDy=0;entryX=0;entryY=0.5;entryDx=0;entryDy=0;" edge="1" parent="1" source="4T8lRR1x6J5uWcAEup5r-17" target="4T8lRR1x6J5uWcAEup5r-10">
          <mxGeometry relative="1" as="geometry" />
        </mxCell>
        <mxCell id="4T8lRR1x6J5uWcAEup5r-17" value="Rules" style="rounded=1;whiteSpace=wrap;html=1;" parent="1" vertex="1">
          <mxGeometry x="260" y="205" width="84" height="30" as="geometry" />
        </mxCell>
      </root>
    </mxGraphModel>
  </diagram>
</mxfile>
